<?xml version="1.0" encoding="UTF-8"?>
<svg xmlns="http://www.w3.org/2000/svg" xmlns:xlink="http://www.w3.org/1999/xlink" width="38px" height="38px" viewBox="0 0 96 96" version="1.1">
<g id="surface1">
<path style=" stroke:none;fill-rule:nonzero;fill:rgb(0%,0%,0%);fill-opacity:1;" d="M 95.003906 73.828125 C 91.582031 74.699219 89.46875 73.867188 87.570312 71.015625 C 83.308594 64.636719 78.609375 58.546875 74.070312 52.34375 C 73.484375 51.539062 72.878906 50.753906 72.121094 49.753906 C 66.75 57 61.386719 63.898438 56.355469 71.078125 C 54.554688 73.640625 52.664062 74.761719 49.304688 73.851562 L 69.496094 46.753906 L 50.699219 22.28125 C 53.933594 21.652344 56.167969 21.976562 58.148438 24.871094 C 62.519531 31.261719 67.34375 37.34375 72.148438 43.777344 C 76.988281 37.363281 81.75 31.273438 86.25 24.945312 C 88.058594 22.378906 90 21.40625 93.246094 22.351562 C 90.789062 25.613281 88.378906 28.824219 85.957031 32.011719 C 82.6875 36.308594 79.476562 40.65625 76.085938 44.863281 C 74.878906 46.363281 75.074219 47.339844 76.15625 48.757812 C 82.425781 57 88.621094 65.324219 95.003906 73.828125 Z M 0.996094 46.304688 C 1.539062 43.597656 1.898438 40.835938 2.648438 38.183594 C 7.148438 22.109375 25.597656 15.425781 38.273438 25.386719 C 45.699219 31.230469 47.542969 39.464844 47.175781 48.75 L 5.324219 48.75 C 4.695312 65.40625 16.6875 75.464844 31.972656 70.335938 C 37.335938 68.535156 40.492188 64.335938 42.074219 59.085938 C 42.878906 56.453125 44.203125 56.039062 46.679688 56.789062 C 45.414062 63.359375 42.539062 68.851562 36.539062 72.285156 C 27.539062 77.429688 14.691406 75.765625 7.933594 68.617188 C 3.945312 64.417969 2.25 59.191406 1.5 53.542969 C 1.386719 52.640625 1.15625 51.757812 0.976562 50.863281 C 0.988281 49.34375 0.996094 47.824219 0.996094 46.304688 Z M 5.398438 45.1875 L 43.222656 45.1875 C 42.976562 33.140625 35.476562 24.585938 25.222656 24.511719 C 13.972656 24.421875 5.886719 32.773438 5.398438 45.1875 Z M 5.398438 45.1875 "/>
</g>
</svg>
