<?xml version="1.0" encoding="UTF-8"?>
<svg xmlns="http://www.w3.org/2000/svg" xmlns:xlink="http://www.w3.org/1999/xlink" width="38px" height="38px" viewBox="0 0 96 96" version="1.1">
<g id="surface1">
<path style=" stroke:none;fill-rule:nonzero;fill:rgb(3.921569%,81.176471%,51.372549%);fill-opacity:1;" d="M 34.125 96.75 C 43.050781 96.75 50.25 89.550781 50.25 80.625 L 50.25 64.5 L 34.125 64.5 C 25.199219 64.5 18 71.699219 18 80.625 C 18 89.550781 25.199219 96.75 34.125 96.75 Z M 34.125 96.75 "/>
<path style=" stroke:none;fill-rule:nonzero;fill:rgb(63.529412%,34.901961%,100%);fill-opacity:1;" d="M 18 48.375 C 18 39.449219 25.199219 32.25 34.125 32.25 L 50.25 32.25 L 50.25 64.5 L 34.125 64.5 C 25.199219 64.5 18 57.300781 18 48.375 Z M 18 48.375 "/>
<path style=" stroke:none;fill-rule:nonzero;fill:rgb(94.901961%,30.588235%,11.764706%);fill-opacity:1;" d="M 18 16.125 C 18 7.199219 25.199219 0 34.125 0 L 50.25 0 L 50.25 32.25 L 34.125 32.25 C 25.199219 32.25 18 25.050781 18 16.125 Z M 18 16.125 "/>
<path style=" stroke:none;fill-rule:nonzero;fill:rgb(100%,44.705882%,38.431373%);fill-opacity:1;" d="M 50.25 0 L 66.375 0 C 75.300781 0 82.5 7.199219 82.5 16.125 C 82.5 25.050781 75.300781 32.25 66.375 32.25 L 50.25 32.25 Z M 50.25 0 "/>
<path style=" stroke:none;fill-rule:nonzero;fill:rgb(10.196078%,73.72549%,99.607843%);fill-opacity:1;" d="M 82.5 48.375 C 82.5 57.300781 75.300781 64.5 66.375 64.5 C 57.449219 64.5 50.25 57.300781 50.25 48.375 C 50.25 39.449219 57.449219 32.25 66.375 32.25 C 75.300781 32.25 82.5 39.449219 82.5 48.375 Z M 82.5 48.375 "/>
</g>
</svg>
