<?xml version="1.0" encoding="UTF-8"?>
<svg xmlns="http://www.w3.org/2000/svg" xmlns:xlink="http://www.w3.org/1999/xlink" width="38px" height="38px" viewBox="0 0 96 96" version="1.1">
<g id="surface1">
<path style=" stroke:none;fill-rule:nonzero;fill:rgb(89.411765%,30.196078%,14.901961%);fill-opacity:1;" d="M 6.773438 1.5 L 14.277344 85.570312 L 47.949219 94.871094 L 81.714844 85.582031 L 89.226562 1.5 Z M 73.617188 21.402344 L 73.148438 26.785156 L 72.941406 29.25 L 33.441406 29.25 L 34.386719 39.75 L 72.003906 39.75 L 71.75 42.351562 L 69.324219 69.441406 L 69.148438 71.144531 L 48 76.957031 L 47.972656 76.972656 L 26.839844 71.40625 L 25.40625 55.5 L 35.769531 55.5 L 36.503906 63.6875 L 47.96875 66.75 L 48 66.75 L 48 66.339844 L 59.515625 63.433594 L 60.71875 50.25 L 24.945312 50.25 L 22.410156 21.664062 L 22.160156 18.75 L 73.867188 18.75 Z M 73.617188 21.402344 "/>
</g>
</svg>
