<?xml version="1.0" encoding="UTF-8"?>
<svg xmlns="http://www.w3.org/2000/svg" xmlns:xlink="http://www.w3.org/1999/xlink" width="38px" height="38px" viewBox="0 0 96 96" version="1.1">
<g id="surface1">
<path style=" stroke:none;fill-rule:nonzero;fill:rgb(94.117647%,85.882353%,30.980392%);fill-opacity:1;" d="M 1.5 0.75 L 1.5 94.5 L 95.25 94.5 L 95.25 0.75 Z M 51.089844 80.632812 C 49.707031 83.445312 47.0625 85.292969 44.003906 86.183594 C 39.300781 87.265625 34.800781 86.648438 31.453125 84.640625 C 29.214844 83.265625 27.464844 81.152344 26.277344 78.714844 L 33.417969 74.34375 C 33.480469 74.371094 33.667969 74.707031 33.917969 75.144531 C 34.828125 76.671875 35.617188 77.75 37.160156 78.511719 C 38.675781 79.027344 42.003906 79.359375 43.289062 76.691406 C 44.074219 75.332031 43.824219 70.96875 43.824219 66.140625 C 43.824219 58.554688 43.859375 51 43.859375 43.5 L 52.640625 43.5 C 52.640625 51.75 52.6875 59.5625 52.640625 67.613281 C 52.660156 72.550781 53.089844 76.949219 51.089844 80.632812 Z M 87.519531 78.152344 C 84.46875 88.59375 67.449219 88.933594 60.648438 82.035156 C 59.210938 80.410156 58.308594 79.5625 57.453125 77.691406 C 61.066406 75.609375 61.066406 75.609375 64.582031 73.574219 C 66.492188 76.511719 68.257812 78.125 71.4375 78.789062 C 75.75 79.3125 80.085938 77.832031 79.113281 73.253906 C 78.113281 69.515625 70.285156 68.605469 64.957031 64.605469 C 59.550781 60.972656 58.28125 52.148438 62.726562 47.105469 C 64.207031 45.238281 66.734375 43.847656 69.382812 43.179688 L 72.152344 42.820312 C 77.460938 42.714844 80.78125 44.117188 83.21875 46.835938 C 83.894531 47.523438 84.449219 48.265625 85.484375 49.871094 C 82.65625 51.671875 82.664062 51.65625 78.613281 54.28125 C 77.746094 52.414062 76.308594 51.246094 74.792969 50.738281 C 72.4375 50.023438 69.464844 50.800781 68.847656 53.289062 C 68.632812 54.054688 68.679688 54.769531 69.019531 56.039062 C 69.972656 58.214844 73.175781 59.160156 76.050781 60.480469 C 84.324219 63.835938 87.117188 67.433594 87.804688 71.71875 C 88.464844 75.40625 87.644531 77.796875 87.519531 78.152344 Z M 87.519531 78.152344 "/>
</g>
</svg>
