<?xml version="1.0" encoding="UTF-8"?>
<svg xmlns="http://www.w3.org/2000/svg" xmlns:xlink="http://www.w3.org/1999/xlink" width="38px" height="38px" viewBox="0 0 96 96" version="1.1">
<defs>
<linearGradient id="linear0" gradientUnits="userSpaceOnUse" x1="-10.1478" y1="1394.6362" x2="109.446" y2="1291.7415" gradientTransform="matrix(0.42225,0,0,-0.426,4.30875,598.55775)">
<stop offset="0" style="stop-color:rgb(35.294118%,62.352941%,83.137255%);stop-opacity:1;"/>
<stop offset="1" style="stop-color:rgb(18.823529%,41.176471%,59.607843%);stop-opacity:1;"/>
</linearGradient>
<linearGradient id="linear1" gradientUnits="userSpaceOnUse" x1="155.651" y1="1229.4956" x2="112.9456" y2="1289.9148" gradientTransform="matrix(0.42225,0,0,-0.426,4.30875,598.55775)">
<stop offset="0" style="stop-color:rgb(100%,83.137255%,23.137255%);stop-opacity:1;"/>
<stop offset="1" style="stop-color:rgb(100%,90.980392%,45.098039%);stop-opacity:1;"/>
</linearGradient>
<filter id="alpha" filterUnits="objectBoundingBox" x="0%" y="0%" width="100%" height="100%">
  <feColorMatrix type="matrix" in="SourceGraphic" values="0 0 0 0 1 0 0 0 0 1 0 0 0 0 1 0 0 0 1 0"/>
</filter>
<mask id="mask0">
  <g filter="url(#alpha)">
<rect x="0" y="0" width="96" height="96" style="fill:rgb(0%,0%,0%);fill-opacity:0.443137;stroke:none;"/>
  </g>
</mask>
<radialGradient id="radial0" gradientUnits="userSpaceOnUse" cx="2247.5142" cy="520.2819" fx="2247.5142" fy="520.2819" r="25.7579" gradientTransform="matrix(0,-0.18,-0.79125,0,459.73425,492.582)">
<stop offset="0" style="stop-color:rgb(72.156863%,72.156863%,72.156863%);stop-opacity:0.498039;"/>
<stop offset="1" style="stop-color:rgb(49.803922%,49.803922%,49.803922%);stop-opacity:0;"/>
</radialGradient>
<clipPath id="clip1">
  <rect x="0" y="0" width="96" height="96"/>
</clipPath>
<g id="surface5" clip-path="url(#clip1)">
<path style=" stroke:none;fill-rule:nonzero;fill:url(#radial0);" d="M 72.074219 88.199219 C 72.074219 90.75 61.351562 92.851562 48.148438 92.851562 C 34.949219 92.851562 24.226562 90.75 24.226562 88.199219 C 24.226562 85.648438 34.949219 83.550781 48.148438 83.550781 C 61.351562 83.550781 72.074219 85.648438 72.074219 88.199219 Z M 72.074219 88.199219 "/>
</g>
</defs>
<g id="surface1">
<path style=" stroke:none;fill-rule:nonzero;fill:url(#linear0);" d="M 47.398438 1.800781 C 43.648438 1.800781 40.050781 2.175781 36.898438 2.699219 C 27.523438 4.351562 25.875 7.800781 25.875 14.175781 L 25.875 22.5 L 47.925781 22.5 L 47.925781 25.351562 L 17.625 25.351562 C 11.175781 25.351562 5.625 29.175781 3.824219 36.523438 C 1.800781 45 1.726562 50.175781 3.824219 59.023438 C 5.398438 65.550781 9.148438 70.199219 15.523438 70.199219 L 23.101562 70.199219 L 23.101562 60.074219 C 23.101562 52.800781 29.398438 46.351562 36.898438 46.351562 L 58.949219 46.351562 C 65.101562 46.351562 69.976562 41.324219 69.976562 35.175781 L 69.976562 14.175781 C 69.976562 8.175781 64.949219 3.675781 58.949219 2.699219 C 55.125 2.023438 51.226562 1.800781 47.398438 1.800781 Z M 35.476562 8.550781 C 37.800781 8.550781 39.601562 10.425781 39.601562 12.75 C 39.601562 15.074219 37.726562 16.949219 35.476562 16.949219 C 33.148438 16.949219 31.351562 15.074219 31.351562 12.75 C 31.351562 10.425781 33.300781 8.550781 35.476562 8.550781 Z M 35.476562 8.550781 "/>
<path style=" stroke:none;fill-rule:nonzero;fill:url(#linear1);" d="M 72.675781 25.351562 L 72.675781 35.175781 C 72.675781 42.75 66.226562 49.199219 58.875 49.199219 L 36.976562 49.199219 C 30.898438 49.199219 25.949219 54.375 25.949219 60.375 L 25.949219 81.375 C 25.949219 87.375 31.125 90.824219 36.976562 92.550781 C 43.949219 94.574219 50.625 95.023438 59.023438 92.550781 C 64.574219 90.976562 70.050781 87.675781 70.050781 81.375 L 70.050781 72.898438 L 47.925781 72.898438 L 47.925781 70.050781 L 81 70.050781 C 87.449219 70.050781 89.851562 65.550781 92.023438 58.875 C 94.351562 51.976562 94.273438 45.300781 92.023438 36.449219 C 90.449219 30.074219 87.375 25.273438 81 25.273438 L 72.675781 25.273438 Z M 60.375 78.523438 C 62.699219 78.523438 64.5 80.398438 64.5 82.726562 C 64.5 85.050781 62.625 86.925781 60.375 86.925781 C 58.050781 86.925781 56.25 85.050781 56.25 82.726562 C 56.175781 80.398438 58.050781 78.523438 60.375 78.523438 Z M 60.375 78.523438 "/>
<use xlink:href="#surface5" mask="url(#mask0)"/>
</g>
</svg>
