<?xml version="1.0" encoding="UTF-8"?>
<svg xmlns="http://www.w3.org/2000/svg" xmlns:xlink="http://www.w3.org/1999/xlink" width="38px" height="38px" viewBox="0 0 96 96" version="1.1">
<g id="surface1">
<path style=" stroke:none;fill-rule:evenodd;fill:rgb(238%,0%,0%);fill-opacity:1;" d="M 46.703125 8.160156 C 46.5625 8.242188 45.964844 9.097656 45.382812 10.058594 C 43.910156 12.46875 43.894531 12.472656 41.917969 10.394531 C 40.636719 9.042969 40.324219 8.792969 39.910156 8.796875 C 39.640625 8.796875 39.300781 8.890625 39.15625 9 C 39.007812 9.109375 38.59375 9.988281 38.234375 10.949219 C 37.410156 13.152344 37.371094 13.226562 36.914062 13.3125 C 36.632812 13.367188 36.089844 13.066406 34.792969 12.132812 C 33.832031 11.445312 32.894531 10.878906 32.703125 10.878906 C 31.910156 10.878906 31.6875 11.3125 31.3125 13.574219 C 30.835938 16.453125 30.851562 16.441406 28.257812 15.265625 C 27.210938 14.789062 26.21875 14.398438 26.050781 14.398438 C 25.882812 14.398438 25.566406 14.578125 25.34375 14.800781 C 24.945312 15.199219 24.945312 15.199219 25.054688 17.402344 L 25.164062 19.601562 L 24.746094 19.824219 C 24.378906 20.023438 24.125 20 22.492188 19.613281 C 20.359375 19.109375 19.910156 19.121094 19.476562 19.703125 L 19.160156 20.128906 L 19.585938 21.945312 C 19.816406 22.941406 20.042969 23.902344 20.082031 24.082031 C 20.125 24.253906 20.054688 24.535156 19.925781 24.703125 C 19.710938 24.980469 19.484375 25.003906 17.511719 24.972656 C 14.171875 24.921875 13.980469 25.207031 15.363281 28.21875 C 15.800781 29.175781 16.160156 30.046875 16.160156 30.148438 C 16.160156 30.699219 15.722656 30.898438 13.835938 31.207031 C 12.78125 31.378906 11.867188 31.519531 11.800781 31.519531 C 11.734375 31.519531 11.535156 31.664062 11.359375 31.839844 C 10.785156 32.414062 10.949219 32.953125 12.25 34.789062 C 13.871094 37.078125 13.867188 37.085938 11.191406 38.109375 C 8.144531 39.273438 8.085938 39.5625 10.402344 41.761719 C 12.5625 43.808594 12.5625 43.777344 10.121094 45.3125 C 8.269531 46.476562 8.238281 46.503906 8.191406 47.136719 C 8.136719 47.902344 8.148438 47.917969 10.359375 49.265625 C 12.546875 50.601562 12.546875 50.644531 10.398438 52.671875 C 8.09375 54.855469 8.164062 55.175781 11.210938 56.324219 C 13.875 57.328125 13.878906 57.339844 12.253906 59.628906 C 11.332031 60.925781 11.039062 61.464844 11.039062 61.867188 C 11.039062 62.613281 11.429688 62.804688 13.761719 63.195312 C 15.722656 63.527344 16.160156 63.722656 16.160156 64.265625 C 16.160156 64.375 15.800781 65.25 15.359375 66.210938 C 13.992188 69.191406 14.148438 69.441406 17.386719 69.441406 C 20.40625 69.441406 20.328125 69.347656 19.675781 72.070312 C 19.1875 74.121094 19.179688 74.515625 19.621094 74.957031 C 19.960938 75.300781 20.601562 75.261719 22.605469 74.78125 C 24.136719 74.417969 24.402344 74.390625 24.757812 74.582031 L 25.164062 74.796875 L 25.054688 77 C 24.945312 79.199219 24.945312 79.199219 25.34375 79.601562 C 25.566406 79.820312 25.886719 80 26.058594 80 C 26.230469 80 27.226562 79.613281 28.265625 79.140625 C 30.851562 77.964844 30.835938 77.957031 31.3125 80.824219 C 31.691406 83.097656 31.910156 83.519531 32.71875 83.519531 C 32.917969 83.519531 33.839844 82.980469 34.765625 82.320312 C 36.390625 81.160156 36.8125 80.980469 37.242188 81.253906 C 37.355469 81.324219 37.789062 82.277344 38.207031 83.371094 C 38.820312 84.980469 39.046875 85.398438 39.386719 85.5625 C 40.039062 85.871094 40.441406 85.621094 41.972656 83.957031 C 43.820312 81.945312 43.894531 81.953125 45.402344 84.398438 C 47.070312 87.097656 47.5 87.089844 49.207031 84.34375 C 50.679688 81.976562 50.660156 81.976562 52.652344 84.054688 C 53.972656 85.433594 54.253906 85.652344 54.699219 85.652344 C 54.984375 85.652344 55.320312 85.546875 55.453125 85.414062 C 55.582031 85.285156 56.015625 84.320312 56.410156 83.273438 C 56.808594 82.226562 57.222656 81.316406 57.328125 81.246094 C 57.75 80.980469 58.183594 81.167969 59.808594 82.320312 C 60.761719 83 61.660156 83.519531 61.875 83.519531 C 62.667969 83.519531 62.957031 82.957031 63.285156 80.742188 C 63.566406 78.855469 63.625 78.675781 63.996094 78.484375 C 64.359375 78.300781 64.582031 78.363281 66.292969 79.140625 C 67.335938 79.613281 68.328125 80 68.5 80 C 68.671875 80 69 79.816406 69.226562 79.589844 L 69.636719 79.175781 L 69.523438 77.066406 C 69.417969 75.050781 69.425781 74.941406 69.746094 74.652344 C 70.078125 74.351562 70.113281 74.351562 71.960938 74.777344 C 74.203125 75.289062 74.617188 75.300781 75.039062 74.878906 C 75.449219 74.46875 75.445312 74.378906 74.882812 72.007812 C 74.253906 69.347656 74.167969 69.441406 77.199219 69.441406 C 79.265625 69.441406 79.496094 69.410156 79.757812 69.121094 C 80.199219 68.632812 80.09375 68.078125 79.210938 66.195312 C 78.765625 65.242188 78.402344 64.378906 78.40625 64.273438 C 78.421875 63.714844 78.859375 63.523438 80.894531 63.191406 C 82.140625 62.988281 83.070312 62.753906 83.242188 62.601562 C 83.804688 62.09375 83.597656 61.429688 82.308594 59.617188 C 80.691406 57.351562 80.695312 57.328125 83.285156 56.375 C 86.390625 55.230469 86.476562 54.851562 84.15625 52.644531 C 82.003906 50.601562 82.003906 50.613281 84.359375 49.167969 C 87.207031 47.417969 87.210938 47.023438 84.410156 45.285156 C 82 43.792969 82.003906 43.8125 84.160156 41.761719 C 86.476562 39.5625 86.414062 39.273438 83.371094 38.109375 C 80.679688 37.082031 80.671875 37.054688 82.304688 34.8125 C 83.277344 33.476562 83.519531 33.035156 83.519531 32.578125 C 83.519531 31.777344 83.160156 31.597656 80.804688 31.21875 C 78.832031 30.898438 78.398438 30.707031 78.398438 30.144531 C 78.398438 30.039062 78.757812 29.183594 79.199219 28.238281 C 80.0625 26.394531 80.183594 25.65625 79.695312 25.214844 C 79.433594 24.976562 79.082031 24.941406 77.203125 24.972656 C 75.238281 25.007812 74.988281 24.980469 74.714844 24.703125 C 74.417969 24.40625 74.421875 24.363281 74.886719 22.421875 C 75.457031 20.046875 75.457031 19.988281 74.988281 19.546875 C 74.515625 19.101562 74.21875 19.109375 72.035156 19.621094 C 70.441406 19.996094 70.179688 20.023438 69.816406 19.828125 L 69.40625 19.609375 L 69.519531 17.414062 L 69.636719 15.21875 L 69.226562 14.808594 C 69 14.585938 68.679688 14.398438 68.511719 14.398438 C 68.347656 14.398438 67.359375 14.792969 66.316406 15.269531 C 64.578125 16.070312 64.394531 16.125 64.015625 15.929688 C 63.640625 15.730469 63.578125 15.539062 63.257812 13.582031 C 62.890625 11.320312 62.660156 10.878906 61.859375 10.878906 C 61.667969 10.878906 60.722656 11.445312 59.757812 12.140625 C 58.175781 13.277344 57.964844 13.382812 57.570312 13.246094 C 57.242188 13.132812 57.054688 12.882812 56.820312 12.265625 C 56.652344 11.8125 56.320312 10.9375 56.089844 10.320312 C 55.625 9.078125 55.363281 8.800781 54.664062 8.800781 C 54.273438 8.800781 53.921875 9.082031 52.65625 10.394531 C 50.667969 12.460938 50.660156 12.460938 49.195312 10.0625 C 48.609375 9.101562 48 8.246094 47.835938 8.160156 C 47.46875 7.960938 47.039062 7.960938 46.703125 8.160156 M 48.515625 15.386719 C 50.25 16.621094 49.328125 19.519531 47.203125 19.519531 C 45.140625 19.519531 44.101562 17.035156 45.574219 15.625 C 46.40625 14.828125 47.597656 14.730469 48.515625 15.386719 M 46.335938 23.046875 C 47.472656 23.480469 47.941406 23.21875 50.535156 20.71875 L 52.484375 18.839844 L 53.308594 18.949219 C 55.894531 19.292969 61.042969 21.554688 64 23.644531 C 66.71875 25.566406 70.328125 29.484375 71.867188 32.175781 L 72.195312 32.753906 L 70.738281 36.039062 C 69.9375 37.847656 69.28125 39.515625 69.28125 39.746094 C 69.28125 40.285156 69.632812 41.136719 69.972656 41.417969 C 70.117188 41.535156 71.476562 42.191406 72.996094 42.871094 L 75.757812 44.113281 L 75.867188 44.816406 C 76.007812 45.730469 76.027344 47.980469 75.898438 48.621094 L 75.800781 49.121094 L 74.222656 49.121094 C 72.394531 49.121094 72.535156 48.957031 72.4375 51.199219 C 72.363281 52.828125 71.972656 53.726562 71.078125 54.308594 C 69.621094 55.257812 67.214844 55.085938 66.195312 53.957031 C 66.039062 53.785156 65.734375 52.914062 65.519531 52.023438 C 64.886719 49.417969 64.039062 47.957031 62.335938 46.53125 C 61.800781 46.082031 61.359375 45.664062 61.359375 45.601562 C 61.359375 45.539062 61.949219 45.039062 62.671875 44.496094 C 65.304688 42.511719 66.820312 40.203125 66.984375 37.914062 C 67.304688 33.550781 63.828125 29.480469 58.65625 28.164062 C 57.429688 27.851562 56.90625 27.839844 41.734375 27.839844 C 33.125 27.839844 26.078125 27.785156 26.078125 27.714844 C 26.078125 27.554688 27.992188 25.695312 29.121094 24.765625 C 32.214844 22.207031 36.234375 20.191406 40.398438 19.117188 L 41.839844 18.746094 L 43.886719 20.820312 C 45.011719 21.960938 46.117188 22.960938 46.335938 23.046875 M 20.574219 36.394531 C 21.515625 37.011719 21.902344 38.5625 21.347656 39.496094 C 20.484375 40.9375 18.304688 41 17.441406 39.605469 C 16.191406 37.578125 18.601562 35.101562 20.574219 36.394531 M 76.113281 36.472656 C 78.578125 37.976562 76.667969 41.675781 74.027344 40.507812 C 72.265625 39.726562 72.207031 37.320312 73.929688 36.441406 C 74.652344 36.074219 75.476562 36.085938 76.113281 36.472656 M 27.839844 45.679688 L 27.839844 54.878906 L 19.707031 54.878906 L 19.382812 53.480469 C 18.75 50.722656 18.484375 47.871094 18.644531 45.535156 L 18.753906 43.894531 L 21.550781 42.640625 C 23.304688 41.855469 24.433594 41.257812 24.578125 41.035156 C 25.214844 40.0625 25.152344 39.371094 24.261719 37.398438 L 23.84375 36.480469 L 27.839844 36.480469 L 27.839844 45.679688 M 51.253906 36.878906 C 52.996094 37.332031 53.917969 38.253906 53.917969 39.546875 C 53.921875 40.496094 53.449219 41.089844 52.285156 41.617188 C 51.457031 41.992188 51.328125 42 46.121094 42.050781 L 40.800781 42.101562 L 40.800781 36.640625 L 45.566406 36.640625 C 49.289062 36.640625 50.535156 36.691406 51.253906 36.878906 M 49.457031 50.082031 C 50.320312 50.320312 51.34375 51.070312 51.867188 51.851562 C 52.414062 52.671875 52.738281 53.734375 53.5 57.261719 C 54.140625 60.246094 54.554688 61.21875 55.714844 62.488281 C 57.152344 64.058594 56.820312 64 63.992188 64 C 67.429688 64 70.238281 64.054688 70.238281 64.121094 C 70.238281 64.242188 67.875 67.039062 67.773438 67.039062 C 67.742188 67.039062 66.507812 66.78125 65.023438 66.464844 C 60.84375 65.570312 60.691406 65.675781 59.730469 70.160156 L 59.113281 73.039062 L 58.558594 73.3125 C 57.628906 73.773438 54.605469 74.71875 53.039062 75.039062 C 50.449219 75.574219 47.632812 75.753906 45.15625 75.542969 C 40.933594 75.1875 35.34375 73.546875 35.125 72.605469 C 35.078125 72.402344 34.796875 71.109375 34.5 69.722656 C 34.203125 68.339844 33.84375 67.023438 33.699219 66.804688 C 33.007812 65.75 32.277344 65.683594 29.074219 66.390625 C 27.863281 66.660156 26.804688 66.878906 26.722656 66.878906 C 26.570312 66.878906 24.320312 64.277344 24.320312 64.101562 C 24.320312 64.046875 29.667969 63.984375 36.199219 63.960938 L 48.082031 63.921875 L 48.121094 59.699219 C 48.152344 56.71875 48.113281 55.414062 47.984375 55.261719 C 47.839844 55.085938 47.070312 55.039062 44.300781 55.039062 L 40.800781 55.039062 L 40.800781 49.921875 L 44.839844 49.921875 C 47.0625 49.921875 49.140625 49.996094 49.457031 50.082031 M 31.152344 69.273438 C 33.042969 70.425781 32.136719 73.441406 29.902344 73.4375 C 27.609375 73.4375 26.761719 70.449219 28.714844 69.257812 C 29.359375 68.863281 30.492188 68.871094 31.152344 69.273438 M 65.746094 69.398438 C 66.671875 70.078125 66.980469 71.492188 66.40625 72.429688 C 64.902344 74.902344 61.132812 72.9375 62.390625 70.339844 C 63.007812 69.0625 64.65625 68.601562 65.746094 69.398438 "/>
</g>
</svg>
