<?xml version="1.0" encoding="UTF-8"?>
<svg xmlns="http://www.w3.org/2000/svg" xmlns:xlink="http://www.w3.org/1999/xlink" width="38px" height="38px" viewBox="0 0 96 96" version="1.1">
<defs>
<linearGradient id="linear0" gradientUnits="userSpaceOnUse" x1="32" y1="144" x2="106.74" y2="42.49" gradientTransform="matrix(0.75,0,0,-0.75,0,97.5)">
<stop offset="0" style="stop-color:rgb(25.490196%,81.960784%,100%);stop-opacity:1;"/>
<stop offset="1" style="stop-color:rgb(74.117647%,20.392157%,99.607843%);stop-opacity:1;"/>
</linearGradient>
<linearGradient id="linear1" gradientUnits="userSpaceOnUse" x1="67.25" y1="128.57" x2="80.77" y2="35.83" gradientTransform="matrix(0.75,0,0,-0.75,0,97.5)">
<stop offset="0" style="stop-color:rgb(100%,91.764706%,51.372549%);stop-opacity:1;"/>
<stop offset="0.08" style="stop-color:rgb(100%,86.666667%,20.784314%);stop-opacity:1;"/>
<stop offset="1" style="stop-color:rgb(100%,65.882353%,0%);stop-opacity:1;"/>
</linearGradient>
</defs>
<g id="surface1">
<path style=" stroke:none;fill-rule:nonzero;fill:url(#linear0);" d="M 95.625 14.210938 L 50.585938 94.746094 C 49.65625 96.414062 47.265625 96.421875 46.328125 94.761719 L 0.390625 14.21875 C -0.636719 12.421875 0.898438 10.230469 2.949219 10.597656 L 48.039062 18.660156 C 48.324219 18.710938 48.621094 18.710938 48.90625 18.660156 L 93.050781 10.613281 C 95.09375 10.246094 96.636719 12.40625 95.625 14.210938 Z M 95.625 14.210938 "/>
<path style=" stroke:none;fill-rule:nonzero;fill:url(#linear1);" d="M 69.511719 0.0234375 L 36.179688 6.554688 C 35.632812 6.660156 35.226562 7.125 35.191406 7.679688 L 33.140625 42.308594 C 33.097656 43.125 33.839844 43.753906 34.640625 43.574219 L 43.921875 41.429688 C 44.789062 41.226562 45.570312 41.992188 45.398438 42.871094 L 42.636719 56.371094 C 42.449219 57.277344 43.304688 58.058594 44.191406 57.789062 L 49.921875 56.046875 C 50.804688 55.777344 51.660156 56.558594 51.472656 57.464844 L 47.09375 78.667969 C 46.816406 79.996094 48.585938 80.714844 49.320312 79.582031 L 49.816406 78.824219 L 76.972656 24.621094 C 77.429688 23.714844 76.640625 22.679688 75.644531 22.875 L 66.089844 24.71875 C 65.191406 24.890625 64.425781 24.058594 64.679688 23.183594 L 70.914062 1.566406 C 71.167969 0.691406 70.402344 -0.148438 69.503906 0.03125 Z M 69.511719 0.0234375 "/>
</g>
</svg>
