<?xml version="1.0" encoding="UTF-8"?>
<svg xmlns="http://www.w3.org/2000/svg" xmlns:xlink="http://www.w3.org/1999/xlink" width="38px" height="38px" viewBox="0 0 38 38" version="1.1">
<g id="surface1">
<path style=" stroke:none;fill-rule:nonzero;fill:rgb(8.235294%,44.705882%,71.372549%);fill-opacity:1;" d="M 2.601562 0.296875 L 5.585938 33.808594 L 18.980469 37.542969 L 32.410156 33.796875 L 35.398438 0.296875 Z M 29.199219 7.976562 L 28.203125 19.136719 L 28.207031 19.199219 L 28.203125 19.335938 L 27.496094 27.140625 L 27.417969 27.835938 L 19 30.164062 L 18.992188 30.171875 L 10.589844 27.828125 L 10.019531 21.375 L 14.140625 21.375 L 14.433594 24.65625 L 19 25.894531 L 19 25.898438 L 19 25.894531 L 23.585938 24.640625 L 24.070312 19.296875 L 14.484375 19.296875 L 14.402344 18.394531 L 14.214844 16.277344 L 14.117188 15.140625 L 24.433594 15.140625 L 24.808594 10.984375 L 9.097656 10.984375 L 9.015625 10.082031 L 8.828125 7.964844 L 8.726562 6.828125 L 29.296875 6.828125 Z M 29.199219 7.976562 "/>
</g>
</svg>
