<?xml version="1.0" encoding="UTF-8"?>
<svg xmlns="http://www.w3.org/2000/svg" xmlns:xlink="http://www.w3.org/1999/xlink" width="38px" height="38px" viewBox="0 0 96 96" version="1.1">
<g id="surface1">
<path style=" stroke:none;fill-rule:evenodd;fill:rgb(98.039216%,65.098039%,14.509804%);fill-opacity:1;" d="M 35.964844 51.75 L 47.496094 51.75 C 45.511719 45 43.554688 38.761719 41.632812 32.417969 C 39.765625 38.78125 37.875 45 35.964844 51.75 Z M 93.085938 0.75 L 2.15625 0.75 C 0.515625 0.75 0.75 1.105469 0.75 2.6875 L 0.75 93.734375 C 0.75 95.316406 0.515625 95.25 2.039062 95.25 L 93.199219 95.25 C 94.722656 95.25 95.25 95.316406 95.25 93.734375 L 95.25 2.804688 C 95.25 1.105469 94.722656 0.75 93.085938 0.75 Z M 57.972656 72 C 56.746094 72 55.511719 71.898438 54.292969 71.988281 C 53.410156 72.054688 53.117188 71.683594 52.882812 70.917969 C 51.746094 67.21875 50.539062 63.523438 49.402344 59.824219 C 49.171875 59.082031 48.847656 58.808594 48.039062 58.820312 C 43.898438 58.867188 39.753906 58.863281 35.609375 58.816406 C 34.738281 58.804688 34.335938 59.035156 34.089844 59.902344 C 33.035156 63.582031 31.878906 67.226562 30.816406 70.902344 C 30.582031 71.699219 30.234375 71.976562 29.386719 71.957031 C 26.898438 71.894531 24.40625 71.933594 21.679688 71.933594 C 22.398438 69.648438 23.054688 67.535156 23.726562 65.433594 C 27.863281 52.53125 32.011719 39.632812 36.117188 26.726562 C 36.40625 25.828125 36.804688 25.550781 37.726562 25.570312 C 40.640625 25.632812 43.558594 25.585938 46.472656 25.570312 C 47.019531 25.566406 47.390625 25.597656 47.589844 26.21875 C 52.46875 41.304688 57.363281 56.484375 62.257812 71.570312 C 62.277344 71.636719 62.261719 72 62.273438 72 Z M 73.5 72 L 64.5 72 L 64.5 38.25 L 73.5 38.25 Z M 68.738281 33.695312 C 65.988281 33.691406 64.019531 31.800781 64.003906 29.144531 C 63.984375 26.496094 66.03125 24.523438 68.804688 24.523438 C 71.601562 24.519531 73.574219 26.425781 73.59375 29.148438 C 73.613281 31.808594 71.59375 33.703125 68.738281 33.695312 Z M 68.738281 33.695312 "/>
</g>
</svg>
