<?xml version="1.0" encoding="UTF-8"?>
<svg xmlns="http://www.w3.org/2000/svg" xmlns:xlink="http://www.w3.org/1999/xlink" width="38px" height="38px" viewBox="0 0 96 96" version="1.1">
<g id="surface1">
<path style=" stroke:none;fill-rule:evenodd;fill:rgb(50.196078%,70.980392%,88.627451%);fill-opacity:1;" d="M 37.683594 31.210938 C 34.921875 30.519531 32.15625 30.742188 29.238281 31.195312 C 29.238281 36.300781 29.230469 41.265625 29.265625 46.234375 C 29.269531 46.488281 29.652344 46.929688 29.898438 46.964844 C 33.082031 47.394531 36.246094 47.429688 39.222656 45.976562 C 42.300781 44.476562 43.867188 41.339844 43.460938 37.660156 C 43.09375 34.304688 41.109375 32.070312 37.683594 31.210938 Z M 95.25 47.972656 L 95.25 2.464844 C 95.25 0.890625 95.265625 0.75 93.742188 0.75 L 2.609375 0.75 C 1.125 0.75 0.75 0.890625 0.75 2.390625 L 0.75 93.519531 C 0.75 95.035156 0.9375 95.035156 2.40625 95.035156 C 32.824219 95.039062 63.328125 95.03125 93.746094 95.066406 C 94.925781 95.066406 95.242188 94.753906 95.238281 93.59375 C 95.199219 78.386719 95.25 63.179688 95.25 47.972656 Z M 42.265625 52.351562 C 38.097656 53.839844 33.75 53.921875 29.25 53.574219 L 29.25 70.5 L 21 70.5 L 21 69.449219 C 21 55.277344 20.933594 41.109375 20.894531 26.9375 C 20.890625 25.761719 21.078125 25.191406 22.402344 25.058594 C 28.652344 24.417969 34.867188 23.699219 41.078125 25.15625 C 47.757812 26.722656 51.609375 31.136719 51.902344 37.238281 C 52.265625 44.792969 48.945312 49.96875 42.265625 52.351562 Z M 75.496094 61.917969 C 75.179688 66.246094 72.738281 69.085938 68.734375 70.460938 C 63.378906 72.300781 58.050781 71.875 52.816406 69.792969 C 51.960938 69.453125 51.792969 69.019531 52.078125 68.148438 C 52.589844 66.550781 52.96875 64.914062 53.367188 63.433594 C 55.578125 64.082031 57.683594 64.890625 59.863281 65.277344 C 61.402344 65.546875 63.066406 65.386719 64.632812 65.140625 C 66.035156 64.921875 67.046875 63.96875 67.277344 62.464844 C 67.511719 60.933594 67.050781 59.605469 65.699219 58.792969 C 64.625 58.144531 63.441406 57.683594 62.304688 57.140625 C 60.480469 56.269531 58.535156 55.585938 56.851562 54.492188 C 50.230469 50.199219 52.386719 42.207031 56.804688 39.195312 C 59.171875 37.585938 61.789062 36.871094 64.589844 36.773438 C 67.882812 36.660156 71.054688 37.226562 74.171875 38.742188 L 72.527344 44.582031 C 71.222656 44.121094 70.003906 43.519531 68.722656 43.28125 C 67.203125 43 65.605469 42.839844 64.070312 42.964844 C 62.011719 43.132812 60.804688 44.554688 60.804688 46.320312 C 60.804688 47.363281 61.199219 48.246094 62.070312 48.753906 C 63.320312 49.480469 64.644531 50.078125 65.960938 50.6875 C 67.382812 51.34375 68.882812 51.851562 70.253906 52.601562 C 73.90625 54.601562 75.804688 57.699219 75.496094 61.917969 Z M 75.496094 61.917969 "/>
</g>
</svg>
