<?xml version="1.0" encoding="UTF-8"?>
<svg xmlns="http://www.w3.org/2000/svg" xmlns:xlink="http://www.w3.org/1999/xlink" width="38px" height="38px" viewBox="0 0 96 96" version="1.1">
<g id="surface1">
<path style=" stroke:none;fill-rule:nonzero;fill:rgb(38.039216%,85.490196%,98.431373%);fill-opacity:1;" d="M 56.550781 48 C 56.550781 52.722656 52.722656 56.550781 48 56.550781 C 43.277344 56.550781 39.449219 52.722656 39.449219 48 C 39.449219 43.277344 43.277344 39.449219 48 39.449219 C 52.722656 39.449219 56.550781 43.277344 56.550781 48 Z M 56.550781 48 "/>
<path style=" stroke:none;fill-rule:nonzero;fill:rgb(38.039216%,85.490196%,98.431373%);fill-opacity:1;" d="M 80.476562 33.898438 C 78.824219 33.300781 77.101562 32.699219 75.300781 32.175781 C 75.75 30.375 76.125 28.574219 76.425781 26.851562 C 78 16.949219 76.273438 9.976562 71.476562 7.273438 C 70.050781 6.449219 68.476562 6.074219 66.675781 6.074219 C 61.425781 6.074219 54.75 9.976562 48 16.5 C 41.25 9.976562 34.574219 6.074219 29.324219 6.074219 C 27.523438 6.074219 25.949219 6.449219 24.523438 7.273438 C 19.726562 10.050781 18 17.023438 19.574219 26.851562 C 19.875 28.574219 20.25 30.375 20.699219 32.175781 C 18.898438 32.699219 17.175781 33.226562 15.523438 33.898438 C 6.148438 37.5 1.050781 42.449219 1.050781 48 C 1.050781 53.550781 6.226562 58.5 15.523438 62.101562 C 17.175781 62.699219 18.898438 63.300781 20.699219 63.824219 C 20.25 65.625 19.875 67.425781 19.574219 69.148438 C 18 79.050781 19.726562 86.023438 24.523438 88.726562 C 25.949219 89.550781 27.523438 89.925781 29.324219 89.925781 C 34.648438 89.925781 41.324219 86.023438 48 79.5 C 54.75 86.023438 61.425781 89.925781 66.675781 89.925781 C 68.476562 89.925781 70.050781 89.550781 71.476562 88.726562 C 76.273438 85.949219 78 78.976562 76.425781 69.148438 C 76.125 67.425781 75.75 65.625 75.300781 63.824219 C 77.101562 63.300781 78.824219 62.773438 80.476562 62.101562 C 89.851562 58.5 94.949219 53.550781 94.949219 48 C 94.949219 42.449219 89.851562 37.5 80.476562 33.898438 Z M 69.375 11.023438 C 72.449219 12.824219 73.5 18.375 72.226562 26.25 C 72 27.824219 71.625 29.476562 71.175781 31.199219 C 67.273438 30.300781 63.148438 29.699219 58.800781 29.324219 C 56.25 25.726562 53.625 22.5 51 19.574219 C 56.550781 14.101562 62.175781 10.351562 66.75 10.351562 C 67.726562 10.351562 68.625 10.574219 69.375 11.023438 Z M 60.976562 55.5 C 59.625 57.898438 58.050781 60.300781 56.398438 62.699219 C 53.625 62.925781 50.851562 63 48 63 C 45.074219 63 42.300781 62.925781 39.601562 62.699219 C 37.949219 60.300781 36.449219 57.898438 35.101562 55.5 C 33.675781 53.023438 32.324219 50.476562 31.125 48 C 32.324219 45.523438 33.675781 42.976562 35.101562 40.5 C 36.449219 38.101562 38.023438 35.699219 39.675781 33.300781 C 42.449219 33.074219 45.226562 33 48.074219 33 C 51 33 53.773438 33.074219 56.476562 33.300781 C 58.125 35.699219 59.625 38.101562 60.976562 40.5 C 62.398438 42.976562 63.75 45.523438 64.949219 48 C 63.675781 50.476562 62.398438 52.949219 60.976562 55.5 Z M 67.199219 53.023438 C 68.324219 55.648438 69.226562 58.199219 70.050781 60.75 C 67.5 61.351562 64.800781 61.800781 61.949219 62.175781 C 62.851562 60.75 63.824219 59.25 64.648438 57.675781 C 65.550781 56.101562 66.375 54.523438 67.199219 53.023438 Z M 48 73.351562 C 46.199219 71.398438 44.476562 69.300781 42.824219 67.125 C 44.550781 67.199219 46.273438 67.273438 48 67.273438 C 49.726562 67.273438 51.449219 67.199219 53.175781 67.125 C 51.523438 69.300781 49.800781 71.398438 48 73.351562 Z M 34.050781 62.101562 C 31.199219 61.726562 28.5 61.273438 25.949219 60.675781 C 26.773438 58.199219 27.675781 55.574219 28.800781 52.949219 C 29.625 54.449219 30.449219 56.023438 31.351562 57.523438 C 32.25 59.175781 33.148438 60.601562 34.050781 62.101562 Z M 28.800781 42.976562 C 27.675781 40.351562 26.773438 37.800781 25.949219 35.25 C 28.5 34.648438 31.199219 34.199219 34.050781 33.824219 C 33.148438 35.25 32.175781 36.75 31.351562 38.324219 C 30.449219 39.898438 29.625 41.476562 28.800781 42.976562 Z M 48 22.648438 C 49.800781 24.601562 51.523438 26.699219 53.175781 28.875 C 51.449219 28.800781 49.726562 28.726562 48 28.726562 C 46.273438 28.726562 44.550781 28.800781 42.824219 28.875 C 44.476562 26.699219 46.199219 24.601562 48 22.648438 Z M 64.648438 38.398438 L 61.949219 33.898438 C 64.800781 34.273438 67.5 34.726562 70.050781 35.324219 C 69.226562 37.800781 68.324219 40.425781 67.199219 43.050781 C 66.375 41.476562 65.550781 39.898438 64.648438 38.398438 Z M 23.773438 26.25 C 22.5 18.375 23.550781 12.824219 26.625 11.023438 C 27.375 10.574219 28.273438 10.351562 29.25 10.351562 C 33.75 10.351562 39.375 14.023438 45 19.574219 C 42.375 22.425781 39.75 25.726562 37.199219 29.324219 C 32.851562 29.699219 28.726562 30.375 24.824219 31.199219 C 24.375 29.476562 24.074219 27.824219 23.773438 26.25 Z M 5.25 48 C 5.25 44.476562 9.523438 40.726562 17.023438 37.949219 C 18.523438 37.351562 20.175781 36.824219 21.824219 36.375 C 23.023438 40.125 24.523438 44.101562 26.324219 48.074219 C 24.523438 52.050781 22.949219 55.949219 21.824219 59.699219 C 11.476562 56.699219 5.25 52.199219 5.25 48 Z M 26.625 84.976562 C 23.550781 83.175781 22.5 77.625 23.773438 69.75 C 24 68.175781 24.375 66.523438 24.824219 64.800781 C 28.726562 65.699219 32.851562 66.300781 37.199219 66.675781 C 39.75 70.273438 42.375 73.5 45 76.425781 C 39.449219 81.898438 33.824219 85.648438 29.25 85.648438 C 28.273438 85.648438 27.375 85.425781 26.625 84.976562 Z M 72.226562 69.75 C 73.5 77.625 72.449219 83.175781 69.375 84.976562 C 68.625 85.425781 67.726562 85.648438 66.75 85.648438 C 62.25 85.648438 56.625 81.976562 51 76.425781 C 53.625 73.574219 56.25 70.273438 58.800781 66.675781 C 63.148438 66.300781 67.273438 65.625 71.175781 64.800781 C 71.625 66.523438 71.925781 68.175781 72.226562 69.75 Z M 78.976562 58.050781 C 77.476562 58.648438 75.824219 59.175781 74.175781 59.625 C 72.976562 55.875 71.476562 51.898438 69.675781 47.925781 C 71.476562 43.949219 73.050781 40.050781 74.175781 36.300781 C 84.523438 39.300781 90.75 43.800781 90.75 48 C 90.75 51.523438 86.398438 55.273438 78.976562 58.050781 Z M 78.976562 58.050781 "/>
</g>
</svg>
